<?xml version="1.0" encoding="UTF-8" standalone="no"?>
<!DOCTYPE svg PUBLIC "-//W3C//DTD SVG 1.1//EN"
 "http://www.w3.org/Graphics/SVG/1.1/DTD/svg11.dtd">
<!-- Generated by graphviz version 2.40.1 (20161225.0304)
 -->
<!-- Title: dependencies Pages: 1 -->
<svg width="5616pt" height="284pt"
 viewBox="0.00 0.00 5616.00 284.00" xmlns="http://www.w3.org/2000/svg" xmlns:xlink="http://www.w3.org/1999/xlink">
<g id="graph0" class="graph" transform="scale(1 1) rotate(0) translate(4 280)">
<title>dependencies</title>
<polygon fill="#ffffff" stroke="transparent" points="-4,4 -4,-280 5612,-280 5612,4 -4,4"/>
<text text-anchor="start" x="2783.0091" y="-42.4" font-family="sans-serif" font-weight="bold" font-size="14.00" fill="#000000">Legend</text>
<polygon fill="#ffffb3" stroke="transparent" points="2570,-10 2570,-30 2590,-30 2590,-10 2570,-10"/>
<text text-anchor="start" x="2593.629" y="-15.4" font-family="sans-serif" font-size="14.00" fill="#000000"> &#160;Declarations</text>
<polygon fill="#8dd3c7" stroke="transparent" points="2683,-10 2683,-30 2703,-30 2703,-10 2683,-10"/>
<text text-anchor="start" x="2706.7251" y="-15.4" font-family="sans-serif" font-size="14.00" fill="#000000"> &#160;Module</text>
<polygon fill="#80b1d3" stroke="transparent" points="2769,-10 2769,-30 2789,-30 2789,-10 2769,-10"/>
<text text-anchor="start" x="2792.7812" y="-15.4" font-family="sans-serif" font-size="14.00" fill="#000000"> &#160;Bootstrap</text>
<polygon fill="#fdb462" stroke="transparent" points="2866,-10 2866,-30 2886,-30 2886,-10 2866,-10"/>
<text text-anchor="start" x="2889.6732" y="-15.4" font-family="sans-serif" font-size="14.00" fill="#000000"> &#160;Providers</text>
<polygon fill="#fb8072" stroke="transparent" points="2962,-10 2962,-30 2982,-30 2982,-10 2962,-10"/>
<text text-anchor="start" x="2985.7258" y="-15.4" font-family="sans-serif" font-size="14.00" fill="#000000"> &#160;Exports</text>
<g id="clust1" class="cluster">
<title>cluster_SharedModule</title>
<polygon fill="none" stroke="#000000" stroke-dasharray="1,5" points="8,-70 8,-268 5600,-268 5600,-70 8,-70"/>
</g>
<g id="clust2" class="cluster">
<title>cluster_SharedModule_declarations</title>
<polygon fill="none" stroke="#000000" points="1728,-78 1728,-130 5592,-130 5592,-78 1728,-78"/>
</g>
<g id="clust29" class="cluster">
<title>cluster_SharedModule_imports</title>
<polygon fill="none" stroke="#000000" points="1600,-78 1600,-130 1720,-130 1720,-78 1600,-78"/>
</g>
<g id="clust30" class="cluster">
<title>cluster_SharedModule_exports</title>
<polygon fill="none" stroke="#000000" points="980,-208 980,-260 4805,-260 4805,-208 980,-208"/>
</g>
<g id="clust32" class="cluster">
<title>cluster_SharedModule_providers</title>
<polygon fill="none" stroke="#000000" points="16,-78 16,-130 1592,-130 1592,-78 16,-78"/>
</g>
<!-- CapitalizePipe -->
<g id="node1" class="node">
<title>CapitalizePipe</title>
<polygon fill="#ffffb3" stroke="#000000" points="5583.6458,-122 5486.3542,-122 5486.3542,-86 5583.6458,-86 5583.6458,-122"/>
<text text-anchor="middle" x="5535" y="-99.8" font-family="Times,serif" font-size="14.00" fill="#000000">CapitalizePipe</text>
</g>
<!-- SharedModule -->
<g id="node27" class="node">
<title>SharedModule</title>
<polygon fill="#8dd3c7" stroke="#000000" points="2931.4231,-187 2928.4231,-191 2907.4231,-191 2904.4231,-187 2832.5769,-187 2832.5769,-151 2931.4231,-151 2931.4231,-187"/>
<text text-anchor="middle" x="2882" y="-164.8" font-family="Times,serif" font-size="14.00" fill="#000000">SharedModule</text>
</g>
<!-- CapitalizePipe&#45;&gt;SharedModule -->
<g id="edge1" class="edge">
<title>CapitalizePipe&#45;&gt;SharedModule</title>
<path fill="none" stroke="#000000" d="M5535,-122.2228C5535,-142.3652 5535,-172 5535,-172 5535,-172 2941.464,-172 2941.464,-172"/>
<polygon fill="#000000" stroke="#000000" points="2941.464,-168.5001 2931.464,-172 2941.464,-175.5001 2941.464,-168.5001"/>
</g>
<!-- SearchfilterPipe -->
<g id="node2" class="node">
<title>SearchfilterPipe</title>
<polygon fill="#ffffb3" stroke="#000000" points="5468.1826,-122 5361.8174,-122 5361.8174,-86 5468.1826,-86 5468.1826,-122"/>
<text text-anchor="middle" x="5415" y="-99.8" font-family="Times,serif" font-size="14.00" fill="#000000">SearchfilterPipe</text>
</g>
<!-- SearchfilterPipe&#45;&gt;SharedModule -->
<g id="edge2" class="edge">
<title>SearchfilterPipe&#45;&gt;SharedModule</title>
<path fill="none" stroke="#000000" d="M5415,-122.308C5415,-142.1455 5415,-171 5415,-171 5415,-171 2941.4619,-171 2941.4619,-171"/>
<polygon fill="#000000" stroke="#000000" points="2941.4619,-167.5001 2931.4619,-171 2941.4618,-174.5001 2941.4619,-167.5001"/>
</g>
<!-- MasterCheckboxComponent -->
<g id="node3" class="node">
<title>MasterCheckboxComponent</title>
<polygon fill="#ffffb3" stroke="#000000" points="5343.4678,-122 5166.5322,-122 5166.5322,-86 5343.4678,-86 5343.4678,-122"/>
<text text-anchor="middle" x="5255" y="-99.8" font-family="Times,serif" font-size="14.00" fill="#000000">MasterCheckboxComponent</text>
</g>
<!-- MasterCheckboxComponent&#45;&gt;SharedModule -->
<g id="edge3" class="edge">
<title>MasterCheckboxComponent&#45;&gt;SharedModule</title>
<path fill="none" stroke="#000000" d="M5255,-122.1061C5255,-141.3391 5255,-169 5255,-169 5255,-169 2941.2908,-169 2941.2908,-169"/>
<polygon fill="#000000" stroke="#000000" points="2941.2908,-165.5001 2931.2908,-169 2941.2907,-172.5001 2941.2908,-165.5001"/>
</g>
<!-- SortComponent -->
<g id="node4" class="node">
<title>SortComponent</title>
<polygon fill="#ffffb3" stroke="#000000" points="5148.1667,-122 5043.8333,-122 5043.8333,-86 5148.1667,-86 5148.1667,-122"/>
<text text-anchor="middle" x="5096" y="-99.8" font-family="Times,serif" font-size="14.00" fill="#000000">SortComponent</text>
</g>
<!-- SortComponent&#45;&gt;SharedModule -->
<g id="edge4" class="edge">
<title>SortComponent&#45;&gt;SharedModule</title>
<path fill="none" stroke="#000000" d="M5096,-122.1686C5096,-141.0898 5096,-168 5096,-168 5096,-168 2941.3467,-168 2941.3467,-168"/>
<polygon fill="#000000" stroke="#000000" points="2941.3468,-164.5001 2931.3467,-168 2941.3467,-171.5001 2941.3468,-164.5001"/>
</g>
<!-- AutoResizeDirective -->
<g id="node5" class="node">
<title>AutoResizeDirective</title>
<polygon fill="#ffffb3" stroke="#000000" points="5025.8962,-122 4892.1038,-122 4892.1038,-86 5025.8962,-86 5025.8962,-122"/>
<text text-anchor="middle" x="4959" y="-99.8" font-family="Times,serif" font-size="14.00" fill="#000000">AutoResizeDirective</text>
</g>
<!-- AutoResizeDirective&#45;&gt;SharedModule -->
<g id="edge5" class="edge">
<title>AutoResizeDirective&#45;&gt;SharedModule</title>
<path fill="none" stroke="#000000" d="M4959,-122.2222C4959,-140.8285 4959,-167 4959,-167 4959,-167 2941.2933,-167 2941.2933,-167"/>
<polygon fill="#000000" stroke="#000000" points="2941.2933,-163.5001 2931.2933,-167 2941.2932,-170.5001 2941.2933,-163.5001"/>
</g>
<!-- TabsComponent -->
<g id="node6" class="node">
<title>TabsComponent</title>
<polygon fill="#ffffb3" stroke="#000000" points="4874.0452,-122 4765.9548,-122 4765.9548,-86 4874.0452,-86 4874.0452,-122"/>
<text text-anchor="middle" x="4820" y="-99.8" font-family="Times,serif" font-size="14.00" fill="#000000">TabsComponent</text>
</g>
<!-- TabsComponent&#45;&gt;SharedModule -->
<g id="edge6" class="edge">
<title>TabsComponent&#45;&gt;SharedModule</title>
<path fill="none" stroke="#000000" d="M4781.3459,-122.2667C4781.3459,-140.5552 4781.3459,-166 4781.3459,-166 4781.3459,-166 2941.3417,-166 2941.3417,-166"/>
<polygon fill="#000000" stroke="#000000" points="2941.3418,-162.5001 2931.3417,-166 2941.3417,-169.5001 2941.3418,-162.5001"/>
</g>
<!-- TabComponent -->
<g id="node7" class="node">
<title>TabComponent</title>
<polygon fill="#ffffb3" stroke="#000000" points="4747.5996,-122 4644.4004,-122 4644.4004,-86 4747.5996,-86 4747.5996,-122"/>
<text text-anchor="middle" x="4696" y="-99.8" font-family="Times,serif" font-size="14.00" fill="#000000">TabComponent</text>
</g>
<!-- TabComponent&#45;&gt;SharedModule -->
<g id="edge7" class="edge">
<title>TabComponent&#45;&gt;SharedModule</title>
<path fill="none" stroke="#000000" d="M4648.7432,-122.302C4648.7432,-140.2699 4648.7432,-165 4648.7432,-165 4648.7432,-165 2941.562,-165 2941.562,-165"/>
<polygon fill="#000000" stroke="#000000" points="2941.5621,-161.5001 2931.562,-165 2941.562,-168.5001 2941.5621,-161.5001"/>
</g>
<!-- DataflowDateTimePipe -->
<g id="node8" class="node">
<title>DataflowDateTimePipe</title>
<polygon fill="#ffffb3" stroke="#000000" points="4626.4468,-122 4477.5532,-122 4477.5532,-86 4626.4468,-86 4626.4468,-122"/>
<text text-anchor="middle" x="4552" y="-99.8" font-family="Times,serif" font-size="14.00" fill="#000000">DataflowDateTimePipe</text>
</g>
<!-- DataflowDateTimePipe&#45;&gt;SharedModule -->
<g id="edge8" class="edge">
<title>DataflowDateTimePipe&#45;&gt;SharedModule</title>
<path fill="none" stroke="#000000" d="M4493.0496,-122.0225C4493.0496,-139.3734 4493.0496,-163 4493.0496,-163 4493.0496,-163 2941.5377,-163 2941.5377,-163"/>
<polygon fill="#000000" stroke="#000000" points="2941.5378,-159.5001 2931.5377,-163 2941.5377,-166.5001 2941.5378,-159.5001"/>
</g>
<!-- DataflowDurationPipe -->
<g id="node9" class="node">
<title>DataflowDurationPipe</title>
<polygon fill="#ffffb3" stroke="#000000" points="4459.2352,-122 4316.7648,-122 4316.7648,-86 4459.2352,-86 4459.2352,-122"/>
<text text-anchor="middle" x="4388" y="-99.8" font-family="Times,serif" font-size="14.00" fill="#000000">DataflowDurationPipe</text>
</g>
<!-- DataflowDurationPipe&#45;&gt;SharedModule -->
<g id="edge9" class="edge">
<title>DataflowDurationPipe&#45;&gt;SharedModule</title>
<path fill="none" stroke="#000000" d="M4352.9279,-122.0336C4352.9279,-139.0597 4352.9279,-162 4352.9279,-162 4352.9279,-162 2941.361,-162 2941.361,-162"/>
<polygon fill="#000000" stroke="#000000" points="2941.361,-158.5001 2931.361,-162 2941.361,-165.5001 2941.361,-158.5001"/>
</g>
<!-- DecorationComponent -->
<g id="node10" class="node">
<title>DecorationComponent</title>
<polygon fill="#ffffb3" stroke="#000000" points="4298.5254,-122 4155.4746,-122 4155.4746,-86 4298.5254,-86 4298.5254,-122"/>
<text text-anchor="middle" x="4227" y="-99.8" font-family="Times,serif" font-size="14.00" fill="#000000">DecorationComponent</text>
</g>
<!-- DecorationComponent&#45;&gt;SharedModule -->
<g id="edge10" class="edge">
<title>DecorationComponent&#45;&gt;SharedModule</title>
<path fill="none" stroke="#000000" d="M4187.1776,-122.0352C4187.1776,-138.7344 4187.1776,-161 4187.1776,-161 4187.1776,-161 2941.5707,-161 2941.5707,-161"/>
<polygon fill="#000000" stroke="#000000" points="2941.5708,-157.5001 2931.5707,-161 2941.5707,-164.5001 2941.5708,-157.5001"/>
</g>
<!-- HandleComponent -->
<g id="node11" class="node">
<title>HandleComponent</title>
<polygon fill="#ffffb3" stroke="#000000" points="4136.759,-122 4015.241,-122 4015.241,-86 4136.759,-86 4136.759,-122"/>
<text text-anchor="middle" x="4076" y="-99.8" font-family="Times,serif" font-size="14.00" fill="#000000">HandleComponent</text>
</g>
<!-- HandleComponent&#45;&gt;SharedModule -->
<g id="edge11" class="edge">
<title>HandleComponent&#45;&gt;SharedModule</title>
<path fill="none" stroke="#000000" d="M4034.9809,-122.027C4034.9809,-138.3976 4034.9809,-160 4034.9809,-160 4034.9809,-160 2941.5421,-160 2941.5421,-160"/>
<polygon fill="#000000" stroke="#000000" points="2941.5422,-156.5001 2931.5421,-160 2941.5421,-163.5001 2941.5422,-156.5001"/>
</g>
<!-- PropertiesDialogComponent -->
<g id="node12" class="node">
<title>PropertiesDialogComponent</title>
<polygon fill="#ffffb3" stroke="#000000" points="3997.1937,-122 3820.8063,-122 3820.8063,-86 3997.1937,-86 3997.1937,-122"/>
<text text-anchor="middle" x="3909" y="-99.8" font-family="Times,serif" font-size="14.00" fill="#000000">PropertiesDialogComponent</text>
</g>
<!-- PropertiesDialogComponent&#45;&gt;SharedModule -->
<g id="edge12" class="edge">
<title>PropertiesDialogComponent&#45;&gt;SharedModule</title>
<path fill="none" stroke="#000000" d="M3874.2078,-122.0091C3874.2078,-138.0494 3874.2078,-159 3874.2078,-159 3874.2078,-159 2941.5432,-159 2941.5432,-159"/>
<polygon fill="#000000" stroke="#000000" points="2941.5432,-155.5001 2931.5432,-159 2941.5432,-162.5001 2941.5432,-155.5001"/>
</g>
<!-- GraphViewComponent -->
<g id="node13" class="node">
<title>GraphViewComponent</title>
<polygon fill="#ffffb3" stroke="#000000" points="3803.1331,-122 3656.8669,-122 3656.8669,-86 3803.1331,-86 3803.1331,-122"/>
<text text-anchor="middle" x="3730" y="-99.8" font-family="Times,serif" font-size="14.00" fill="#000000">GraphViewComponent</text>
</g>
<!-- GraphViewComponent&#45;&gt;SharedModule -->
<g id="edge13" class="edge">
<title>GraphViewComponent&#45;&gt;SharedModule</title>
<path fill="none" stroke="#000000" d="M3709.4588,-122.2396C3709.4588,-137.5706 3709.4588,-157 3709.4588,-157 3709.4588,-157 2941.2833,-157 2941.2833,-157"/>
<polygon fill="#000000" stroke="#000000" points="2941.2833,-153.5001 2931.2833,-157 2941.2833,-160.5001 2941.2833,-153.5001"/>
</g>
<!-- StreamDslComponent -->
<g id="node14" class="node">
<title>StreamDslComponent</title>
<polygon fill="#ffffb3" stroke="#000000" points="3638.4285,-122 3497.5715,-122 3497.5715,-86 3638.4285,-86 3638.4285,-122"/>
<text text-anchor="middle" x="3568" y="-99.8" font-family="Times,serif" font-size="14.00" fill="#000000">StreamDslComponent</text>
</g>
<!-- StreamDslComponent&#45;&gt;SharedModule -->
<g id="edge14" class="edge">
<title>StreamDslComponent&#45;&gt;SharedModule</title>
<path fill="none" stroke="#000000" d="M3530.9346,-122.1871C3530.9346,-137.1824 3530.9346,-156 3530.9346,-156 3530.9346,-156 2941.3082,-156 2941.3082,-156"/>
<polygon fill="#000000" stroke="#000000" points="2941.3082,-152.5001 2931.3082,-156 2941.3082,-159.5001 2941.3082,-152.5001"/>
</g>
<!-- TruncatePipe -->
<g id="node15" class="node">
<title>TruncatePipe</title>
<polygon fill="#ffffb3" stroke="#000000" points="3479.1361,-122 3388.8639,-122 3388.8639,-86 3479.1361,-86 3479.1361,-122"/>
<text text-anchor="middle" x="3434" y="-99.8" font-family="Times,serif" font-size="14.00" fill="#000000">TruncatePipe</text>
</g>
<!-- TruncatePipe&#45;&gt;SharedModule -->
<g id="edge15" class="edge">
<title>TruncatePipe&#45;&gt;SharedModule</title>
<path fill="none" stroke="#000000" d="M3413.1559,-122.1243C3413.1559,-136.7832 3413.1559,-155 3413.1559,-155 3413.1559,-155 2941.4929,-155 2941.4929,-155"/>
<polygon fill="#000000" stroke="#000000" points="2941.4929,-151.5001 2931.4929,-155 2941.4928,-158.5001 2941.4929,-151.5001"/>
</g>
<!-- TruncatorComponent -->
<g id="node16" class="node">
<title>TruncatorComponent</title>
<polygon fill="#ffffb3" stroke="#000000" points="3370.0268,-122 3233.9732,-122 3233.9732,-86 3370.0268,-86 3370.0268,-122"/>
<text text-anchor="middle" x="3302" y="-99.8" font-family="Times,serif" font-size="14.00" fill="#000000">TruncatorComponent</text>
</g>
<!-- TruncatorComponent&#45;&gt;SharedModule -->
<g id="edge16" class="edge">
<title>TruncatorComponent&#45;&gt;SharedModule</title>
<path fill="none" stroke="#000000" d="M3264.2919,-122.0511C3264.2919,-136.373 3264.2919,-154 3264.2919,-154 3264.2919,-154 2941.5861,-154 2941.5861,-154"/>
<polygon fill="#000000" stroke="#000000" points="2941.5861,-150.5001 2931.5861,-154 2941.586,-157.5001 2941.5861,-150.5001"/>
</g>
<!-- TruncatorWidthProviderDirective -->
<g id="node17" class="node">
<title>TruncatorWidthProviderDirective</title>
<polygon fill="#ffffb3" stroke="#000000" points="3215.4818,-122 3008.5182,-122 3008.5182,-86 3215.4818,-86 3215.4818,-122"/>
<text text-anchor="middle" x="3112" y="-99.8" font-family="Times,serif" font-size="14.00" fill="#000000">TruncatorWidthProviderDirective</text>
</g>
<!-- TruncatorWidthProviderDirective&#45;&gt;SharedModule -->
<g id="edge17" class="edge">
<title>TruncatorWidthProviderDirective&#45;&gt;SharedModule</title>
<path fill="none" stroke="#000000" d="M3052.9128,-122.2458C3052.9128,-136.1772 3052.9128,-153 3052.9128,-153 3052.9128,-153 2941.4351,-153 2941.4351,-153"/>
<polygon fill="#000000" stroke="#000000" points="2941.4351,-149.5001 2931.4351,-153 2941.435,-156.5001 2941.4351,-149.5001"/>
</g>
<!-- OrderByPipe -->
<g id="node18" class="node">
<title>OrderByPipe</title>
<polygon fill="#ffffb3" stroke="#000000" points="2990.8669,-122 2901.1331,-122 2901.1331,-86 2990.8669,-86 2990.8669,-122"/>
<text text-anchor="middle" x="2946" y="-99.8" font-family="Times,serif" font-size="14.00" fill="#000000">OrderByPipe</text>
</g>
<!-- OrderByPipe&#45;&gt;SharedModule -->
<g id="edge18" class="edge">
<title>OrderByPipe&#45;&gt;SharedModule</title>
<path fill="none" stroke="#000000" d="M2916.1389,-122.1061C2916.1389,-122.1061 2916.1389,-140.991 2916.1389,-140.991"/>
<polygon fill="#000000" stroke="#000000" points="2912.6389,-140.9909 2916.1389,-150.991 2919.6389,-140.991 2912.6389,-140.9909"/>
</g>
<!-- ConfirmComponent -->
<g id="node19" class="node">
<title>ConfirmComponent</title>
<polygon fill="#ffffb3" stroke="#000000" points="2883.2716,-122 2754.7284,-122 2754.7284,-86 2883.2716,-86 2883.2716,-122"/>
<text text-anchor="middle" x="2819" y="-99.8" font-family="Times,serif" font-size="14.00" fill="#000000">ConfirmComponent</text>
</g>
<!-- ConfirmComponent&#45;&gt;SharedModule -->
<g id="edge19" class="edge">
<title>ConfirmComponent&#45;&gt;SharedModule</title>
<path fill="none" stroke="#000000" d="M2858.0873,-122.1061C2858.0873,-122.1061 2858.0873,-140.991 2858.0873,-140.991"/>
<polygon fill="#000000" stroke="#000000" points="2854.5874,-140.9909 2858.0873,-150.991 2861.5874,-140.991 2854.5874,-140.9909"/>
</g>
<!-- LoaderComponent -->
<g id="node20" class="node">
<title>LoaderComponent</title>
<polygon fill="#ffffb3" stroke="#000000" points="2736.4748,-122 2615.5252,-122 2615.5252,-86 2736.4748,-86 2736.4748,-122"/>
<text text-anchor="middle" x="2676" y="-99.8" font-family="Times,serif" font-size="14.00" fill="#000000">LoaderComponent</text>
</g>
<!-- LoaderComponent&#45;&gt;SharedModule -->
<g id="edge20" class="edge">
<title>LoaderComponent&#45;&gt;SharedModule</title>
<path fill="none" stroke="#000000" d="M2706.7372,-122.2458C2706.7372,-136.1772 2706.7372,-153 2706.7372,-153 2706.7372,-153 2822.7131,-153 2822.7131,-153"/>
<polygon fill="#000000" stroke="#000000" points="2822.7132,-156.5001 2832.7131,-153 2822.7131,-149.5001 2822.7132,-156.5001"/>
</g>
<!-- PagerComponent -->
<g id="node21" class="node">
<title>PagerComponent</title>
<polygon fill="#ffffb3" stroke="#000000" points="2597.705,-122 2484.295,-122 2484.295,-86 2597.705,-86 2597.705,-122"/>
<text text-anchor="middle" x="2541" y="-99.8" font-family="Times,serif" font-size="14.00" fill="#000000">PagerComponent</text>
</g>
<!-- PagerComponent&#45;&gt;SharedModule -->
<g id="edge21" class="edge">
<title>PagerComponent&#45;&gt;SharedModule</title>
<path fill="none" stroke="#000000" d="M2541,-122.0511C2541,-136.373 2541,-154 2541,-154 2541,-154 2822.7799,-154 2822.7799,-154"/>
<polygon fill="#000000" stroke="#000000" points="2822.7799,-157.5001 2832.7799,-154 2822.7798,-150.5001 2822.7799,-157.5001"/>
</g>
<!-- LayoutTypeDirective -->
<g id="node22" class="node">
<title>LayoutTypeDirective</title>
<polygon fill="#ffffb3" stroke="#000000" points="2466.0087,-122 2329.9913,-122 2329.9913,-86 2466.0087,-86 2466.0087,-122"/>
<text text-anchor="middle" x="2398" y="-99.8" font-family="Times,serif" font-size="14.00" fill="#000000">LayoutTypeDirective</text>
</g>
<!-- LayoutTypeDirective&#45;&gt;SharedModule -->
<g id="edge22" class="edge">
<title>LayoutTypeDirective&#45;&gt;SharedModule</title>
<path fill="none" stroke="#000000" d="M2457.6317,-122.1243C2457.6317,-136.7832 2457.6317,-155 2457.6317,-155 2457.6317,-155 2822.489,-155 2822.489,-155"/>
<polygon fill="#000000" stroke="#000000" points="2822.4891,-158.5001 2832.489,-155 2822.489,-151.5001 2822.4891,-158.5001"/>
</g>
<!-- FocusDirective -->
<g id="node23" class="node">
<title>FocusDirective</title>
<polygon fill="#ffffb3" stroke="#000000" points="2311.5257,-122 2210.4743,-122 2210.4743,-86 2311.5257,-86 2311.5257,-122"/>
<text text-anchor="middle" x="2261" y="-99.8" font-family="Times,serif" font-size="14.00" fill="#000000">FocusDirective</text>
</g>
<!-- FocusDirective&#45;&gt;SharedModule -->
<g id="edge23" class="edge">
<title>FocusDirective&#45;&gt;SharedModule</title>
<path fill="none" stroke="#000000" d="M2261,-122.1871C2261,-137.1824 2261,-156 2261,-156 2261,-156 2822.7521,-156 2822.7521,-156"/>
<polygon fill="#000000" stroke="#000000" points="2822.7521,-159.5001 2832.7521,-156 2822.7521,-152.5001 2822.7521,-159.5001"/>
</g>
<!-- KvRichTextComponent -->
<g id="node24" class="node">
<title>KvRichTextComponent</title>
<polygon fill="#ffffb3" stroke="#000000" points="2192.0393,-122 2041.9607,-122 2041.9607,-86 2192.0393,-86 2192.0393,-122"/>
<text text-anchor="middle" x="2117" y="-99.8" font-family="Times,serif" font-size="14.00" fill="#000000">KvRichTextComponent</text>
</g>
<!-- KvRichTextComponent&#45;&gt;SharedModule -->
<g id="edge24" class="edge">
<title>KvRichTextComponent&#45;&gt;SharedModule</title>
<path fill="none" stroke="#000000" d="M2177.6561,-122.2396C2177.6561,-137.5706 2177.6561,-157 2177.6561,-157 2177.6561,-157 2822.7518,-157 2822.7518,-157"/>
<polygon fill="#000000" stroke="#000000" points="2822.7519,-160.5001 2832.7518,-157 2822.7518,-153.5001 2822.7519,-160.5001"/>
</g>
<!-- DATAFLOW_LIST -->
<g id="node25" class="node">
<title>DATAFLOW_LIST</title>
<polygon fill="#ffffb3" stroke="#000000" points="2023.5772,-122 1892.4228,-122 1892.4228,-86 2023.5772,-86 2023.5772,-122"/>
<text text-anchor="middle" x="1958" y="-99.8" font-family="Times,serif" font-size="14.00" fill="#000000">DATAFLOW_LIST</text>
</g>
<!-- DATAFLOW_LIST&#45;&gt;SharedModule -->
<g id="edge25" class="edge">
<title>DATAFLOW_LIST&#45;&gt;SharedModule</title>
<path fill="none" stroke="#000000" d="M2018.388,-122.0091C2018.388,-138.0494 2018.388,-159 2018.388,-159 2018.388,-159 2822.7808,-159 2822.7808,-159"/>
<polygon fill="#000000" stroke="#000000" points="2822.7808,-162.5001 2832.7808,-159 2822.7807,-155.5001 2822.7808,-162.5001"/>
</g>
<!-- DATAFLOW_PAGE -->
<g id="node26" class="node">
<title>DATAFLOW_PAGE</title>
<polygon fill="#ffffb3" stroke="#000000" points="1874.0772,-122 1735.9228,-122 1735.9228,-86 1874.0772,-86 1874.0772,-122"/>
<text text-anchor="middle" x="1805" y="-99.8" font-family="Times,serif" font-size="14.00" fill="#000000">DATAFLOW_PAGE</text>
</g>
<!-- DATAFLOW_PAGE&#45;&gt;SharedModule -->
<g id="edge26" class="edge">
<title>DATAFLOW_PAGE&#45;&gt;SharedModule</title>
<path fill="none" stroke="#000000" d="M1792.5492,-122.027C1792.5492,-138.3976 1792.5492,-160 1792.5492,-160 1792.5492,-160 2822.7154,-160 2822.7154,-160"/>
<polygon fill="#000000" stroke="#000000" points="2822.7155,-163.5001 2832.7154,-160 2822.7154,-156.5001 2822.7155,-163.5001"/>
</g>
<!-- StreamDslComponent  -->
<g id="node29" class="node">
<title>StreamDslComponent </title>
<polygon fill="#fb8072" stroke="#000000" points="4796.9278,-252 4653.0722,-252 4653.0722,-216 4796.9278,-216 4796.9278,-252"/>
<text text-anchor="middle" x="4725" y="-229.8" font-family="Times,serif" font-size="14.00" fill="#000000">StreamDslComponent </text>
</g>
<!-- SharedModule&#45;&gt;StreamDslComponent  -->
<g id="edge28" class="edge">
<title>SharedModule&#45;&gt;StreamDslComponent </title>
<path fill="none" stroke="#000000" stroke-dasharray="5,2" d="M2931.578,-173C3222.9976,-173 4700.293,-173 4700.293,-173 4700.293,-173 4700.293,-205.698 4700.293,-205.698"/>
<polygon fill="#000000" stroke="#000000" points="4696.793,-205.698 4700.293,-215.698 4703.793,-205.698 4696.793,-205.698"/>
</g>
<!-- GrafanaModule  -->
<g id="node30" class="node">
<title>GrafanaModule </title>
<polygon fill="#fb8072" stroke="#000000" points="4635.1215,-252 4526.8785,-252 4526.8785,-216 4635.1215,-216 4635.1215,-252"/>
<text text-anchor="middle" x="4581" y="-229.8" font-family="Times,serif" font-size="14.00" fill="#000000">GrafanaModule </text>
</g>
<!-- SharedModule&#45;&gt;GrafanaModule  -->
<g id="edge29" class="edge">
<title>SharedModule&#45;&gt;GrafanaModule </title>
<path fill="none" stroke="#000000" stroke-dasharray="5,2" d="M2931.3456,-174C3210.2429,-174 4576.7064,-174 4576.7064,-174 4576.7064,-174 4576.7064,-205.998 4576.7064,-205.998"/>
<polygon fill="#000000" stroke="#000000" points="4573.2064,-205.998 4576.7064,-215.998 4580.2064,-205.9981 4573.2064,-205.998"/>
</g>
<!-- CapitalizePipe  -->
<g id="node31" class="node">
<title>CapitalizePipe </title>
<polygon fill="#fb8072" stroke="#000000" points="4508.6453,-252 4407.3547,-252 4407.3547,-216 4508.6453,-216 4508.6453,-252"/>
<text text-anchor="middle" x="4458" y="-229.8" font-family="Times,serif" font-size="14.00" fill="#000000">CapitalizePipe </text>
</g>
<!-- SharedModule&#45;&gt;CapitalizePipe  -->
<g id="edge30" class="edge">
<title>SharedModule&#45;&gt;CapitalizePipe </title>
<path fill="none" stroke="#000000" stroke-dasharray="5,2" d="M2931.4257,-175C3196.0531,-175 4433.3975,-175 4433.3975,-175 4433.3975,-175 4433.3975,-205.9775 4433.3975,-205.9775"/>
<polygon fill="#000000" stroke="#000000" points="4429.8975,-205.9774 4433.3975,-215.9775 4436.8975,-205.9775 4429.8975,-205.9774"/>
</g>
<!-- DataflowDateTimePipe  -->
<g id="node32" class="node">
<title>DataflowDateTimePipe </title>
<polygon fill="#fb8072" stroke="#000000" points="4389.4475,-252 4236.5525,-252 4236.5525,-216 4389.4475,-216 4389.4475,-252"/>
<text text-anchor="middle" x="4313" y="-229.8" font-family="Times,serif" font-size="14.00" fill="#000000">DataflowDateTimePipe </text>
</g>
<!-- SharedModule&#45;&gt;DataflowDateTimePipe  -->
<g id="edge31" class="edge">
<title>SharedModule&#45;&gt;DataflowDateTimePipe </title>
<path fill="none" stroke="#000000" stroke-dasharray="5,2" d="M2931.3203,-177C3178.1803,-177 4267.7695,-177 4267.7695,-177 4267.7695,-177 4267.7695,-205.9648 4267.7695,-205.9648"/>
<polygon fill="#000000" stroke="#000000" points="4264.2695,-205.9648 4267.7695,-215.9648 4271.2695,-205.9649 4264.2695,-205.9648"/>
</g>
<!-- DataflowDurationPipe  -->
<g id="node33" class="node">
<title>DataflowDurationPipe </title>
<polygon fill="#fb8072" stroke="#000000" points="4219.2352,-252 4072.7648,-252 4072.7648,-216 4219.2352,-216 4219.2352,-252"/>
<text text-anchor="middle" x="4146" y="-229.8" font-family="Times,serif" font-size="14.00" fill="#000000">DataflowDurationPipe </text>
</g>
<!-- SharedModule&#45;&gt;DataflowDurationPipe  -->
<g id="edge32" class="edge">
<title>SharedModule&#45;&gt;DataflowDurationPipe </title>
<path fill="none" stroke="#000000" stroke-dasharray="5,2" d="M2931.453,-178C3160.2345,-178 4104.881,-178 4104.881,-178 4104.881,-178 4104.881,-205.973 4104.881,-205.973"/>
<polygon fill="#000000" stroke="#000000" points="4101.381,-205.973 4104.881,-215.973 4108.381,-205.973 4101.381,-205.973"/>
</g>
<!-- SearchfilterPipe  -->
<g id="node34" class="node">
<title>SearchfilterPipe </title>
<polygon fill="#fb8072" stroke="#000000" points="4054.6829,-252 3945.3171,-252 3945.3171,-216 4054.6829,-216 4054.6829,-252"/>
<text text-anchor="middle" x="4000" y="-229.8" font-family="Times,serif" font-size="14.00" fill="#000000">SearchfilterPipe </text>
</g>
<!-- SharedModule&#45;&gt;SearchfilterPipe  -->
<g id="edge33" class="edge">
<title>SharedModule&#45;&gt;SearchfilterPipe </title>
<path fill="none" stroke="#000000" stroke-dasharray="5,2" d="M2931.27,-179C3143.7662,-179 3971.1278,-179 3971.1278,-179 3971.1278,-179 3971.1278,-205.9909 3971.1278,-205.9909"/>
<polygon fill="#000000" stroke="#000000" points="3967.6279,-205.9909 3971.1278,-215.9909 3974.6279,-205.991 3967.6279,-205.9909"/>
</g>
<!-- DecorationComponent  -->
<g id="node35" class="node">
<title>DecorationComponent </title>
<polygon fill="#fb8072" stroke="#000000" points="3927.5246,-252 3780.4754,-252 3780.4754,-216 3927.5246,-216 3927.5246,-252"/>
<text text-anchor="middle" x="3854" y="-229.8" font-family="Times,serif" font-size="14.00" fill="#000000">DecorationComponent </text>
</g>
<!-- SharedModule&#45;&gt;DecorationComponent  -->
<g id="edge34" class="edge">
<title>SharedModule&#45;&gt;DecorationComponent </title>
<path fill="none" stroke="#000000" stroke-dasharray="5,2" d="M2931.2429,-180C3120.6797,-180 3791.902,-180 3791.902,-180 3791.902,-180 3791.902,-205.7181 3791.902,-205.7181"/>
<polygon fill="#000000" stroke="#000000" points="3788.4021,-205.718 3791.902,-215.7181 3795.4021,-205.7181 3788.4021,-205.718"/>
</g>
<!-- MasterCheckboxComponent  -->
<g id="node36" class="node">
<title>MasterCheckboxComponent </title>
<polygon fill="#fb8072" stroke="#000000" points="3762.4684,-252 3581.5316,-252 3581.5316,-216 3762.4684,-216 3762.4684,-252"/>
<text text-anchor="middle" x="3672" y="-229.8" font-family="Times,serif" font-size="14.00" fill="#000000">MasterCheckboxComponent </text>
</g>
<!-- SharedModule&#45;&gt;MasterCheckboxComponent  -->
<g id="edge35" class="edge">
<title>SharedModule&#45;&gt;MasterCheckboxComponent </title>
<path fill="none" stroke="#000000" stroke-dasharray="5,2" d="M2931.4654,-181C3095.3165,-181 3609.99,-181 3609.99,-181 3609.99,-181 3609.99,-205.7604 3609.99,-205.7604"/>
<polygon fill="#000000" stroke="#000000" points="3606.4901,-205.7604 3609.99,-215.7604 3613.4901,-205.7604 3606.4901,-205.7604"/>
</g>
<!-- SortComponent  -->
<g id="node37" class="node">
<title>SortComponent </title>
<polygon fill="#fb8072" stroke="#000000" points="3564.1663,-252 3455.8337,-252 3455.8337,-216 3564.1663,-216 3564.1663,-252"/>
<text text-anchor="middle" x="3510" y="-229.8" font-family="Times,serif" font-size="14.00" fill="#000000">SortComponent </text>
</g>
<!-- SharedModule&#45;&gt;SortComponent  -->
<g id="edge36" class="edge">
<title>SharedModule&#45;&gt;SortComponent </title>
<path fill="none" stroke="#000000" stroke-dasharray="5,2" d="M2931.4247,-183C3072.6092,-183 3467.6173,-183 3467.6173,-183 3467.6173,-183 3467.6173,-205.8757 3467.6173,-205.8757"/>
<polygon fill="#000000" stroke="#000000" points="3464.1174,-205.8757 3467.6173,-215.8757 3471.1174,-205.8757 3464.1174,-205.8757"/>
</g>
<!-- HandleComponent  -->
<g id="node38" class="node">
<title>HandleComponent </title>
<polygon fill="#fb8072" stroke="#000000" points="3437.7591,-252 3312.2409,-252 3312.2409,-216 3437.7591,-216 3437.7591,-252"/>
<text text-anchor="middle" x="3375" y="-229.8" font-family="Times,serif" font-size="14.00" fill="#000000">HandleComponent </text>
</g>
<!-- SharedModule&#45;&gt;HandleComponent  -->
<g id="edge37" class="edge">
<title>SharedModule&#45;&gt;HandleComponent </title>
<path fill="none" stroke="#000000" stroke-dasharray="5,2" d="M2931.5914,-184C3050.3606,-184 3341.3168,-184 3341.3168,-184 3341.3168,-184 3341.3168,-205.9489 3341.3168,-205.9489"/>
<polygon fill="#000000" stroke="#000000" points="3337.8169,-205.9488 3341.3168,-215.9489 3344.8169,-205.9489 3337.8169,-205.9488"/>
</g>
<!-- PropertiesDialogComponent  -->
<g id="node39" class="node">
<title>PropertiesDialogComponent </title>
<polygon fill="#fb8072" stroke="#000000" points="3294.6939,-252 3115.3061,-252 3115.3061,-216 3294.6939,-216 3294.6939,-252"/>
<text text-anchor="middle" x="3205" y="-229.8" font-family="Times,serif" font-size="14.00" fill="#000000">PropertiesDialogComponent </text>
</g>
<!-- SharedModule&#45;&gt;PropertiesDialogComponent  -->
<g id="edge38" class="edge">
<title>SharedModule&#45;&gt;PropertiesDialogComponent </title>
<path fill="none" stroke="#000000" stroke-dasharray="5,2" d="M2931.3291,-185C3012.4669,-185 3165.1969,-185 3165.1969,-185 3165.1969,-185 3165.1969,-205.7542 3165.1969,-205.7542"/>
<polygon fill="#000000" stroke="#000000" points="3161.697,-205.7542 3165.1969,-215.7542 3168.697,-205.7542 3161.697,-205.7542"/>
</g>
<!-- GraphViewComponent  -->
<g id="node40" class="node">
<title>GraphViewComponent </title>
<polygon fill="#fb8072" stroke="#000000" points="3097.1327,-252 2946.8673,-252 2946.8673,-216 3097.1327,-216 3097.1327,-252"/>
<text text-anchor="middle" x="3022" y="-229.8" font-family="Times,serif" font-size="14.00" fill="#000000">GraphViewComponent </text>
</g>
<!-- SharedModule&#45;&gt;GraphViewComponent  -->
<g id="edge39" class="edge">
<title>SharedModule&#45;&gt;GraphViewComponent </title>
<path fill="none" stroke="#000000" stroke-dasharray="5,2" d="M2931.3088,-186C2950.93,-186 2968.9335,-186 2968.9335,-186 2968.9335,-186 2968.9335,-205.8533 2968.9335,-205.8533"/>
<polygon fill="#000000" stroke="#000000" points="2965.4336,-205.8532 2968.9335,-215.8533 2972.4336,-205.8533 2965.4336,-205.8532"/>
</g>
<!-- TruncatePipe  -->
<g id="node41" class="node">
<title>TruncatePipe </title>
<polygon fill="#fb8072" stroke="#000000" points="2929.1355,-252 2834.8645,-252 2834.8645,-216 2929.1355,-216 2929.1355,-252"/>
<text text-anchor="middle" x="2882" y="-229.8" font-family="Times,serif" font-size="14.00" fill="#000000">TruncatePipe </text>
</g>
<!-- SharedModule&#45;&gt;TruncatePipe  -->
<g id="edge40" class="edge">
<title>SharedModule&#45;&gt;TruncatePipe </title>
<path fill="none" stroke="#000000" stroke-dasharray="5,2" d="M2882,-187.1061C2882,-187.1061 2882,-205.991 2882,-205.991"/>
<polygon fill="#000000" stroke="#000000" points="2878.5001,-205.9909 2882,-215.991 2885.5001,-205.991 2878.5001,-205.9909"/>
</g>
<!-- TruncatorComponent  -->
<g id="node42" class="node">
<title>TruncatorComponent </title>
<polygon fill="#fb8072" stroke="#000000" points="2817.026,-252 2676.974,-252 2676.974,-216 2817.026,-216 2817.026,-252"/>
<text text-anchor="middle" x="2747" y="-229.8" font-family="Times,serif" font-size="14.00" fill="#000000">TruncatorComponent </text>
</g>
<!-- SharedModule&#45;&gt;TruncatorComponent  -->
<g id="edge41" class="edge">
<title>SharedModule&#45;&gt;TruncatorComponent </title>
<path fill="none" stroke="#000000" stroke-dasharray="5,2" d="M2832.7797,-186C2809.1147,-186 2785.8137,-186 2785.8137,-186 2785.8137,-186 2785.8137,-205.8533 2785.8137,-205.8533"/>
<polygon fill="#000000" stroke="#000000" points="2782.3137,-205.8532 2785.8137,-215.8533 2789.3137,-205.8533 2782.3137,-205.8532"/>
</g>
<!-- TruncatorWidthProviderDirective  -->
<g id="node43" class="node">
<title>TruncatorWidthProviderDirective </title>
<polygon fill="#fb8072" stroke="#000000" points="2658.9812,-252 2449.0188,-252 2449.0188,-216 2658.9812,-216 2658.9812,-252"/>
<text text-anchor="middle" x="2554" y="-229.8" font-family="Times,serif" font-size="14.00" fill="#000000">TruncatorWidthProviderDirective </text>
</g>
<!-- SharedModule&#45;&gt;TruncatorWidthProviderDirective  -->
<g id="edge42" class="edge">
<title>SharedModule&#45;&gt;TruncatorWidthProviderDirective </title>
<path fill="none" stroke="#000000" stroke-dasharray="5,2" d="M2832.7659,-185C2761.2954,-185 2637.2516,-185 2637.2516,-185 2637.2516,-185 2637.2516,-205.7542 2637.2516,-205.7542"/>
<polygon fill="#000000" stroke="#000000" points="2633.7517,-205.7542 2637.2516,-215.7542 2640.7517,-205.7542 2633.7517,-205.7542"/>
</g>
<!-- OrderByPipe  -->
<g id="node44" class="node">
<title>OrderByPipe </title>
<polygon fill="#fb8072" stroke="#000000" points="2430.8675,-252 2337.1325,-252 2337.1325,-216 2430.8675,-216 2430.8675,-252"/>
<text text-anchor="middle" x="2384" y="-229.8" font-family="Times,serif" font-size="14.00" fill="#000000">OrderByPipe </text>
</g>
<!-- SharedModule&#45;&gt;OrderByPipe  -->
<g id="edge43" class="edge">
<title>SharedModule&#45;&gt;OrderByPipe </title>
<path fill="none" stroke="#000000" stroke-dasharray="5,2" d="M2832.4292,-184C2706.4659,-184 2384,-184 2384,-184 2384,-184 2384,-205.9489 2384,-205.9489"/>
<polygon fill="#000000" stroke="#000000" points="2380.5001,-205.9488 2384,-215.9489 2387.5001,-205.9489 2380.5001,-205.9488"/>
</g>
<!-- ConfirmComponent  -->
<g id="node45" class="node">
<title>ConfirmComponent </title>
<polygon fill="#fb8072" stroke="#000000" points="2319.2717,-252 2186.7283,-252 2186.7283,-216 2319.2717,-216 2319.2717,-252"/>
<text text-anchor="middle" x="2253" y="-229.8" font-family="Times,serif" font-size="14.00" fill="#000000">ConfirmComponent </text>
</g>
<!-- SharedModule&#45;&gt;ConfirmComponent  -->
<g id="edge44" class="edge">
<title>SharedModule&#45;&gt;ConfirmComponent </title>
<path fill="none" stroke="#000000" stroke-dasharray="5,2" d="M2832.7134,-183C2694.875,-183 2315.449,-183 2315.449,-183 2315.449,-183 2315.449,-205.8757 2315.449,-205.8757"/>
<polygon fill="#000000" stroke="#000000" points="2311.9491,-205.8757 2315.449,-215.8757 2318.9491,-205.8757 2311.9491,-205.8757"/>
</g>
<!-- AutoResizeDirective  -->
<g id="node46" class="node">
<title>AutoResizeDirective </title>
<polygon fill="#fb8072" stroke="#000000" points="2168.3956,-252 2031.6044,-252 2031.6044,-216 2168.3956,-216 2168.3956,-252"/>
<text text-anchor="middle" x="2100" y="-229.8" font-family="Times,serif" font-size="14.00" fill="#000000">AutoResizeDirective </text>
</g>
<!-- SharedModule&#45;&gt;AutoResizeDirective  -->
<g id="edge45" class="edge">
<title>SharedModule&#45;&gt;AutoResizeDirective </title>
<path fill="none" stroke="#000000" stroke-dasharray="5,2" d="M2832.5155,-181C2661.3883,-181 2105.0893,-181 2105.0893,-181 2105.0893,-181 2105.0893,-205.7604 2105.0893,-205.7604"/>
<polygon fill="#000000" stroke="#000000" points="2101.5893,-205.7604 2105.0893,-215.7604 2108.5893,-205.7604 2101.5893,-205.7604"/>
</g>
<!-- LoaderComponent  -->
<g id="node47" class="node">
<title>LoaderComponent </title>
<polygon fill="#fb8072" stroke="#000000" points="2013.4757,-252 1888.5243,-252 1888.5243,-216 2013.4757,-216 2013.4757,-252"/>
<text text-anchor="middle" x="1951" y="-229.8" font-family="Times,serif" font-size="14.00" fill="#000000">LoaderComponent </text>
</g>
<!-- SharedModule&#45;&gt;LoaderComponent  -->
<g id="edge46" class="edge">
<title>SharedModule&#45;&gt;LoaderComponent </title>
<path fill="none" stroke="#000000" stroke-dasharray="5,2" d="M2832.7009,-180C2640.6111,-180 1952.8494,-180 1952.8494,-180 1952.8494,-180 1952.8494,-205.7181 1952.8494,-205.7181"/>
<polygon fill="#000000" stroke="#000000" points="1949.3495,-205.718 1952.8494,-215.7181 1956.3495,-205.7181 1949.3495,-205.718"/>
</g>
<!-- PagerComponent  -->
<g id="node48" class="node">
<title>PagerComponent </title>
<polygon fill="#fb8072" stroke="#000000" points="1870.2052,-252 1753.7948,-252 1753.7948,-216 1870.2052,-216 1870.2052,-252"/>
<text text-anchor="middle" x="1812" y="-229.8" font-family="Times,serif" font-size="14.00" fill="#000000">PagerComponent </text>
</g>
<!-- SharedModule&#45;&gt;PagerComponent  -->
<g id="edge47" class="edge">
<title>SharedModule&#45;&gt;PagerComponent </title>
<path fill="none" stroke="#000000" stroke-dasharray="5,2" d="M2832.7389,-179C2625.0414,-179 1831.4508,-179 1831.4508,-179 1831.4508,-179 1831.4508,-205.9909 1831.4508,-205.9909"/>
<polygon fill="#000000" stroke="#000000" points="1827.9509,-205.9909 1831.4508,-215.9909 1834.9509,-205.991 1827.9509,-205.9909"/>
</g>
<!-- LayoutTypeDirective  -->
<g id="node49" class="node">
<title>LayoutTypeDirective </title>
<polygon fill="#fb8072" stroke="#000000" points="1736.0078,-252 1595.9922,-252 1595.9922,-216 1736.0078,-216 1736.0078,-252"/>
<text text-anchor="middle" x="1666" y="-229.8" font-family="Times,serif" font-size="14.00" fill="#000000">LayoutTypeDirective </text>
</g>
<!-- SharedModule&#45;&gt;LayoutTypeDirective  -->
<g id="edge48" class="edge">
<title>SharedModule&#45;&gt;LayoutTypeDirective </title>
<path fill="none" stroke="#000000" stroke-dasharray="5,2" d="M2832.6184,-178C2611.6153,-178 1724.1361,-178 1724.1361,-178 1724.1361,-178 1724.1361,-205.973 1724.1361,-205.973"/>
<polygon fill="#000000" stroke="#000000" points="1720.6361,-205.973 1724.1361,-215.973 1727.6361,-205.973 1720.6361,-205.973"/>
</g>
<!-- FocusDirective  -->
<g id="node50" class="node">
<title>FocusDirective </title>
<polygon fill="#fb8072" stroke="#000000" points="1577.5246,-252 1472.4754,-252 1472.4754,-216 1577.5246,-216 1577.5246,-252"/>
<text text-anchor="middle" x="1525" y="-229.8" font-family="Times,serif" font-size="14.00" fill="#000000">FocusDirective </text>
</g>
<!-- SharedModule&#45;&gt;FocusDirective  -->
<g id="edge49" class="edge">
<title>SharedModule&#45;&gt;FocusDirective </title>
<path fill="none" stroke="#000000" stroke-dasharray="5,2" d="M2832.738,-177C2591.0752,-177 1542.5041,-177 1542.5041,-177 1542.5041,-177 1542.5041,-205.9648 1542.5041,-205.9648"/>
<polygon fill="#000000" stroke="#000000" points="1539.0042,-205.9648 1542.5041,-215.9648 1546.0042,-205.9649 1539.0042,-205.9648"/>
</g>
<!-- KvRichTextComponent  -->
<g id="node51" class="node">
<title>KvRichTextComponent </title>
<polygon fill="#fb8072" stroke="#000000" points="1454.0386,-252 1299.9614,-252 1299.9614,-216 1454.0386,-216 1454.0386,-252"/>
<text text-anchor="middle" x="1377" y="-229.8" font-family="Times,serif" font-size="14.00" fill="#000000">KvRichTextComponent </text>
</g>
<!-- SharedModule&#45;&gt;KvRichTextComponent  -->
<g id="edge50" class="edge">
<title>SharedModule&#45;&gt;KvRichTextComponent </title>
<path fill="none" stroke="#000000" stroke-dasharray="5,2" d="M2832.5043,-175C2578.3606,-175 1431.915,-175 1431.915,-175 1431.915,-175 1431.915,-205.9775 1431.915,-205.9775"/>
<polygon fill="#000000" stroke="#000000" points="1428.4151,-205.9774 1431.915,-215.9775 1435.4151,-205.9775 1428.4151,-205.9774"/>
</g>
<!-- DATAFLOW_LIST  -->
<g id="node52" class="node">
<title>DATAFLOW_LIST </title>
<polygon fill="#fb8072" stroke="#000000" points="1282.0779,-252 1147.9221,-252 1147.9221,-216 1282.0779,-216 1282.0779,-252"/>
<text text-anchor="middle" x="1215" y="-229.8" font-family="Times,serif" font-size="14.00" fill="#000000">DATAFLOW_LIST </text>
</g>
<!-- SharedModule&#45;&gt;DATAFLOW_LIST  -->
<g id="edge51" class="edge">
<title>SharedModule&#45;&gt;DATAFLOW_LIST </title>
<path fill="none" stroke="#000000" stroke-dasharray="5,2" d="M2832.5972,-174C2559.4293,-174 1246.1714,-174 1246.1714,-174 1246.1714,-174 1246.1714,-205.998 1246.1714,-205.998"/>
<polygon fill="#000000" stroke="#000000" points="1242.6715,-205.998 1246.1714,-215.998 1249.6715,-205.9981 1242.6715,-205.998"/>
</g>
<!-- DATAFLOW_PAGE  -->
<g id="node53" class="node">
<title>DATAFLOW_PAGE </title>
<polygon fill="#fb8072" stroke="#000000" points="1129.5778,-252 988.4222,-252 988.4222,-216 1129.5778,-216 1129.5778,-252"/>
<text text-anchor="middle" x="1059" y="-229.8" font-family="Times,serif" font-size="14.00" fill="#000000">DATAFLOW_PAGE </text>
</g>
<!-- SharedModule&#45;&gt;DATAFLOW_PAGE  -->
<g id="edge52" class="edge">
<title>SharedModule&#45;&gt;DATAFLOW_PAGE </title>
<path fill="none" stroke="#000000" stroke-dasharray="5,2" d="M2832.3913,-173C2544.0741,-173 1096.8349,-173 1096.8349,-173 1096.8349,-173 1096.8349,-205.698 1096.8349,-205.698"/>
<polygon fill="#000000" stroke="#000000" points="1093.335,-205.698 1096.8349,-215.698 1100.335,-205.698 1093.335,-205.698"/>
</g>
<!-- GrafanaModule -->
<g id="node28" class="node">
<title>GrafanaModule</title>
<polygon fill="#8dd3c7" stroke="#000000" points="1712.1221,-122 1709.1221,-126 1688.1221,-126 1685.1221,-122 1607.8779,-122 1607.8779,-86 1712.1221,-86 1712.1221,-122"/>
<text text-anchor="middle" x="1660" y="-99.8" font-family="Times,serif" font-size="14.00" fill="#000000">GrafanaModule</text>
</g>
<!-- GrafanaModule&#45;&gt;SharedModule -->
<g id="edge27" class="edge">
<title>GrafanaModule&#45;&gt;SharedModule</title>
<path fill="none" stroke="#000000" d="M1660,-122.0352C1660,-138.7344 1660,-161 1660,-161 1660,-161 2822.5827,-161 2822.5827,-161"/>
<polygon fill="#000000" stroke="#000000" points="2822.5827,-164.5001 2832.5827,-161 2822.5826,-157.5001 2822.5827,-164.5001"/>
</g>
<!-- SharedAppsService -->
<g id="node54" class="node">
<title>SharedAppsService</title>
<ellipse fill="#fdb462" stroke="#000000" cx="1497" cy="-104" rx="87.3789" ry="18"/>
<text text-anchor="middle" x="1497" y="-99.8" font-family="Times,serif" font-size="14.00" fill="#000000">SharedAppsService</text>
</g>
<!-- SharedAppsService&#45;&gt;SharedModule -->
<g id="edge53" class="edge">
<title>SharedAppsService&#45;&gt;SharedModule</title>
<path fill="none" stroke="#000000" d="M1507.4959,-122.0336C1507.4959,-139.0597 1507.4959,-162 1507.4959,-162 1507.4959,-162 2822.6754,-162 2822.6754,-162"/>
<polygon fill="#000000" stroke="#000000" points="2822.6755,-165.5001 2832.6754,-162 2822.6754,-158.5001 2822.6755,-165.5001"/>
</g>
<!-- SharedAboutService -->
<g id="node55" class="node">
<title>SharedAboutService</title>
<ellipse fill="#fdb462" stroke="#000000" cx="1301" cy="-104" rx="90.8916" ry="18"/>
<text text-anchor="middle" x="1301" y="-99.8" font-family="Times,serif" font-size="14.00" fill="#000000">SharedAboutService</text>
</g>
<!-- SharedAboutService&#45;&gt;SharedModule -->
<g id="edge54" class="edge">
<title>SharedAboutService&#45;&gt;SharedModule</title>
<path fill="none" stroke="#000000" d="M1345.9632,-119.8109C1345.9632,-137.2874 1345.9632,-163 1345.9632,-163 1345.9632,-163 2822.633,-163 2822.633,-163"/>
<polygon fill="#000000" stroke="#000000" points="2822.633,-166.5001 2832.633,-163 2822.633,-159.5001 2822.633,-166.5001"/>
</g>
<!-- ParserService -->
<g id="node56" class="node">
<title>ParserService</title>
<ellipse fill="#fdb462" stroke="#000000" cx="1128" cy="-104" rx="64.2378" ry="18"/>
<text text-anchor="middle" x="1128" y="-99.8" font-family="Times,serif" font-size="14.00" fill="#000000">ParserService</text>
</g>
<!-- ParserService&#45;&gt;SharedModule -->
<g id="edge55" class="edge">
<title>ParserService&#45;&gt;SharedModule</title>
<path fill="none" stroke="#000000" d="M1169.9151,-117.8418C1169.9151,-135.8394 1169.9151,-165 1169.9151,-165 1169.9151,-165 2822.607,-165 2822.607,-165"/>
<polygon fill="#000000" stroke="#000000" points="2822.6071,-168.5001 2832.607,-165 2822.607,-161.5001 2822.6071,-168.5001"/>
</g>
<!-- ConfirmService -->
<g id="node57" class="node">
<title>ConfirmService</title>
<ellipse fill="#fdb462" stroke="#000000" cx="973" cy="-104" rx="72.9295" ry="18"/>
<text text-anchor="middle" x="973" y="-99.8" font-family="Times,serif" font-size="14.00" fill="#000000">ConfirmService</text>
</g>
<!-- ConfirmService&#45;&gt;SharedModule -->
<g id="edge56" class="edge">
<title>ConfirmService&#45;&gt;SharedModule</title>
<path fill="none" stroke="#000000" d="M1016.9629,-118.3799C1016.9629,-136.6953 1016.9629,-166 1016.9629,-166 1016.9629,-166 2822.5952,-166 2822.5952,-166"/>
<polygon fill="#000000" stroke="#000000" points="2822.5952,-169.5001 2832.5952,-166 2822.5951,-162.5001 2822.5952,-169.5001"/>
</g>
<!-- BusyService -->
<g id="node58" class="node">
<title>BusyService</title>
<ellipse fill="#fdb462" stroke="#000000" cx="822" cy="-104" rx="59.6897" ry="18"/>
<text text-anchor="middle" x="822" y="-99.8" font-family="Times,serif" font-size="14.00" fill="#000000">BusyService</text>
</g>
<!-- BusyService&#45;&gt;SharedModule -->
<g id="edge57" class="edge">
<title>BusyService&#45;&gt;SharedModule</title>
<path fill="none" stroke="#000000" d="M822,-122.2222C822,-140.8285 822,-167 822,-167 822,-167 2822.6058,-167 2822.6058,-167"/>
<polygon fill="#000000" stroke="#000000" points="2822.6059,-170.5001 2832.6058,-167 2822.6058,-163.5001 2822.6059,-170.5001"/>
</g>
<!-- RoutingStateService -->
<g id="node59" class="node">
<title>RoutingStateService</title>
<ellipse fill="#fdb462" stroke="#000000" cx="654" cy="-104" rx="90.3448" ry="18"/>
<text text-anchor="middle" x="654" y="-99.8" font-family="Times,serif" font-size="14.00" fill="#000000">RoutingStateService</text>
</g>
<!-- RoutingStateService&#45;&gt;SharedModule -->
<g id="edge58" class="edge">
<title>RoutingStateService&#45;&gt;SharedModule</title>
<path fill="none" stroke="#000000" d="M654,-122.1686C654,-141.0898 654,-168 654,-168 654,-168 2822.6052,-168 2822.6052,-168"/>
<polygon fill="#000000" stroke="#000000" points="2822.6052,-171.5001 2832.6052,-168 2822.6051,-164.5001 2822.6052,-171.5001"/>
</g>
<!-- NotificationService -->
<g id="node60" class="node">
<title>NotificationService</title>
<ellipse fill="#fdb462" stroke="#000000" cx="459" cy="-104" rx="86.8107" ry="18"/>
<text text-anchor="middle" x="459" y="-99.8" font-family="Times,serif" font-size="14.00" fill="#000000">NotificationService</text>
</g>
<!-- NotificationService&#45;&gt;SharedModule -->
<g id="edge59" class="edge">
<title>NotificationService&#45;&gt;SharedModule</title>
<path fill="none" stroke="#000000" d="M459,-122.1061C459,-141.3391 459,-169 459,-169 459,-169 2822.7773,-169 2822.7773,-169"/>
<polygon fill="#000000" stroke="#000000" points="2822.7773,-172.5001 2832.7773,-169 2822.7772,-165.5001 2822.7773,-172.5001"/>
</g>
<!-- LoggerService -->
<g id="node61" class="node">
<title>LoggerService</title>
<ellipse fill="#fdb462" stroke="#000000" cx="286" cy="-104" rx="67.7567" ry="18"/>
<text text-anchor="middle" x="286" y="-99.8" font-family="Times,serif" font-size="14.00" fill="#000000">LoggerService</text>
</g>
<!-- LoggerService&#45;&gt;SharedModule -->
<g id="edge60" class="edge">
<title>LoggerService&#45;&gt;SharedModule</title>
<path fill="none" stroke="#000000" d="M286,-122.308C286,-142.1455 286,-171 286,-171 286,-171 2822.7455,-171 2822.7455,-171"/>
<polygon fill="#000000" stroke="#000000" points="2822.7455,-174.5001 2832.7455,-171 2822.7455,-167.5001 2822.7455,-174.5001"/>
</g>
<!-- GroupRouteService -->
<g id="node62" class="node">
<title>GroupRouteService</title>
<ellipse fill="#fdb462" stroke="#000000" cx="112" cy="-104" rx="87.9626" ry="18"/>
<text text-anchor="middle" x="112" y="-99.8" font-family="Times,serif" font-size="14.00" fill="#000000">GroupRouteService</text>
</g>
<!-- GroupRouteService&#45;&gt;SharedModule -->
<g id="edge61" class="edge">
<title>GroupRouteService&#45;&gt;SharedModule</title>
<path fill="none" stroke="#000000" d="M112,-122.2228C112,-142.3652 112,-172 112,-172 112,-172 2822.7458,-172 2822.7458,-172"/>
<polygon fill="#000000" stroke="#000000" points="2822.7459,-175.5001 2832.7458,-172 2822.7458,-168.5001 2822.7459,-175.5001"/>
</g>
</g>
</svg>
